<?xml version="1.0" standalone="no"?>
<!DOCTYPE svg PUBLIC "-//W3C//DTD SVG 20010904//EN"
 "http://www.w3.org/TR/2001/REC-SVG-20010904/DTD/svg10.dtd">
<svg version="1.0" xmlns="http://www.w3.org/2000/svg"
 width="300.000000pt" height="300.000000pt" viewBox="0 0 300.000000 300.000000"
 preserveAspectRatio="xMidYMid meet">

<g transform="translate(0.000000,300.000000) scale(0.100000,-0.100000)"
fill="#000000" stroke="none">
<path d="M2042 2427 c-23 -10 -27 -24 -14 -43 4 -6 47 -23 97 -39 117 -36 157
-58 204 -112 44 -49 95 -149 105 -205 14 -76 69 -101 78 -36 5 31 -19 124 -49
188 -31 69 -75 121 -129 156 -96 61 -251 109 -292 91z"/>
<path d="M2012 2278 c2 -18 12 -25 43 -32 66 -14 163 -67 201 -109 37 -41 73
-110 84 -162 4 -21 12 -30 25 -30 32 0 26 98 -10 172 -37 77 -65 103 -156 147
-60 28 -88 36 -133 36 -54 0 -57 -1 -54 -22z"/>
<path d="M1150 2216 c-172 -24 -289 -119 -368 -298 -17 -38 -30 -52 -72 -73
-29 -15 -83 -58 -121 -97 -100 -104 -111 -139 -117 -390 -5 -216 10 -330 50
-398 35 -58 99 -119 164 -156 110 -62 125 -64 489 -65 182 0 422 -4 534 -7
l204 -7 67 -73 c58 -63 72 -73 96 -70 19 2 33 12 41 28 13 29 30 467 19 523
-4 23 -15 42 -29 49 -16 9 -140 13 -489 14 -526 2 -526 2 -619 76 -35 27 -59
57 -75 92 -23 50 -24 64 -26 282 -3 222 -2 230 20 272 30 55 87 119 126 139
76 39 119 43 523 43 449 0 458 -1 553 -87 93 -84 94 -85 98 -416 3 -274 4
-288 23 -298 11 -5 37 -9 57 -7 l37 3 7 80 c11 122 11 307 0 437 -8 97 -14
125 -36 165 -91 163 -194 229 -376 243 -149 12 -685 9 -780 -4z m-386 -609
c-13 -222 45 -361 188 -457 121 -81 116 -80 606 -85 239 -2 439 -8 443 -12 4
-5 9 -59 11 -120 5 -127 3 -130 -61 -90 l-36 22 -543 3 -542 3 -60 30 c-68 34
-119 80 -143 131 -25 53 -40 207 -33 348 7 131 14 180 36 220 22 41 102 120
121 120 18 0 19 -7 13 -113z"/>
<path d="M1532 1827 c-6 -6 -12 -28 -14 -47 l-3 -35 -57 3 c-50 3 -58 1 -72
-20 -8 -13 -13 -33 -10 -45 5 -18 16 -23 63 -28 86 -10 81 -4 81 -109 0 -113
12 -148 49 -144 16 2 31 13 38 29 11 23 16 108 10 184 -2 30 -2 30 54 31 65 1
79 7 79 37 0 37 -17 52 -71 62 -45 9 -54 14 -60 38 -4 16 -13 35 -20 43 -14
17 -53 18 -67 1z"/>
<path d="M1920 1737 c-30 -15 -49 -61 -34 -85 14 -22 58 -44 76 -37 8 3 22 19
31 35 17 28 17 31 0 57 -29 46 -36 49 -73 30z"/>
<path d="M1122 1724 c-24 -16 -29 -53 -12 -85 13 -24 72 -26 94 -3 18 18 21
56 6 85 -13 23 -57 25 -88 3z"/>
</g>
</svg>
