<?xml version="1.0" standalone="no"?>
<!DOCTYPE svg PUBLIC "-//W3C//DTD SVG 20010904//EN"
 "http://www.w3.org/TR/2001/REC-SVG-20010904/DTD/svg10.dtd">
<svg version="1.0" xmlns="http://www.w3.org/2000/svg"
 width="300.000000pt" height="300.000000pt" viewBox="0 0 300.000000 300.000000"
 preserveAspectRatio="xMidYMid meet">

<g transform="translate(0.000000,300.000000) scale(0.100000,-0.100000)"
fill="#000000" stroke="none">
<path d="M1883 1969 c-21 -6 -35 -18 -38 -32 -9 -38 -10 -649 -2 -700 5 -30
19 -60 38 -82 25 -28 41 -35 98 -46 126 -22 161 0 161 101 0 56 -18 80 -59 80
-51 0 -51 2 -51 331 0 278 -2 309 -18 329 -20 25 -81 34 -129 19z"/>
<path d="M317 1926 c-99 -36 -157 -121 -157 -231 0 -76 15 -117 61 -170 64
-73 93 -79 357 -81 226 -2 234 -3 257 -24 13 -12 29 -35 35 -50 26 -63 -36
-150 -107 -150 -48 0 -107 58 -117 115 -10 52 -22 65 -61 65 -44 0 -65 -26
-65 -81 0 -172 198 -285 353 -202 149 81 182 277 64 394 -61 62 -70 64 -332
69 -259 5 -273 8 -300 60 -34 66 -8 138 60 160 70 23 135 -22 150 -103 9 -45
48 -80 79 -71 41 11 59 45 53 96 -11 87 -73 171 -153 204 -42 18 -127 17 -177
0z"/>
<path d="M1142 1907 c-22 -23 -22 -27 -22 -388 0 -285 3 -369 13 -383 21 -29
87 -35 342 -29 226 4 241 6 263 26 18 17 22 31 22 79 0 88 -8 91 -236 91 -133
-1 -188 2 -197 11 -6 7 -12 32 -12 57 l0 44 142 5 c172 6 178 10 178 100 -1
91 -7 94 -178 100 l-142 5 0 50 0 50 200 6 c110 4 205 7 211 8 36 4 47 138 14
171 -19 19 -33 20 -298 20 -278 0 -279 0 -300 -23z"/>
<path d="M717 1722 c-24 -26 -21 -49 8 -77 29 -30 56 -32 78 -7 20 22 22 73 5
90 -18 18 -73 14 -91 -6z"/>
<path d="M2400 1695 c-66 -21 -138 -82 -173 -144 -39 -69 -48 -172 -23 -249
23 -68 92 -144 164 -179 152 -75 339 -2 412 160 29 63 27 186 -4 252 -26 56
-84 113 -148 146 -55 28 -164 35 -228 14z m170 -212 c22 -20 33 -40 37 -70 5
-40 3 -46 -36 -84 -38 -38 -44 -41 -82 -36 -48 6 -84 37 -99 82 -33 101 100
180 180 108z"/>
<path d="M364 1382 c-6 -4 -16 -17 -23 -30 -10 -19 -10 -28 4 -48 20 -30 37
-38 68 -30 64 16 48 116 -18 116 -11 0 -25 -4 -31 -8z"/>
</g>
</svg>
