<?xml version="1.0" standalone="no"?>
<!DOCTYPE svg PUBLIC "-//W3C//DTD SVG 20010904//EN"
 "http://www.w3.org/TR/2001/REC-SVG-20010904/DTD/svg10.dtd">
<svg version="1.0" xmlns="http://www.w3.org/2000/svg"
 width="300.000000pt" height="105.000000pt" viewBox="0 0 300.000000 105.000000"
 preserveAspectRatio="xMidYMid meet">

<g transform="translate(0.000000,105.000000) scale(0.100000,-0.100000)"
fill="#000000" stroke="none">
<path d="M764 929 c-8 -14 11 -27 53 -35 43 -8 81 -47 110 -112 24 -54 50 -63
38 -13 -16 67 -47 112 -94 135 -60 30 -98 39 -107 25z"/>
<path d="M2479 899 c-20 -20 -22 -28 -13 -53 8 -20 123 -23 142 -4 21 21 15
57 -10 62 -77 16 -99 15 -119 -5z"/>
<path d="M750 870 c0 -5 17 -14 38 -19 44 -12 88 -54 97 -93 9 -35 25 -36 25
-3 0 42 -28 83 -70 105 -41 21 -90 27 -90 10z"/>
<path d="M346 835 c-47 -17 -94 -59 -112 -102 -8 -18 -26 -39 -42 -47 -79 -41
-108 -115 -100 -255 7 -119 27 -153 111 -191 37 -17 67 -20 270 -20 l228 0 36
-35 c20 -20 41 -34 47 -32 13 4 31 195 22 231 l-6 26 -213 0 -213 0 -42 27
c-23 15 -44 34 -46 43 -3 8 -7 58 -11 110 -7 107 5 146 58 184 26 19 45 21
196 24 190 4 233 -4 276 -48 29 -31 30 -34 35 -163 5 -126 6 -132 26 -135 20
-3 23 3 29 57 8 73 -3 207 -20 241 -18 35 -54 66 -97 85 -50 20 -374 21 -432
0z m-126 -262 c0 -78 14 -124 47 -156 54 -51 86 -57 292 -57 l189 0 4 -51 c1
-28 1 -52 -1 -54 -2 -3 -13 1 -25 8 -14 8 -96 12 -254 14 -250 2 -269 6 -306
56 -18 24 -21 43 -21 130 0 91 3 106 23 135 36 50 52 42 52 -25z"/>
<path d="M1120 812 c-65 -25 -70 -42 -67 -216 2 -129 4 -150 20 -160 12 -8 22
-8 35 0 15 10 17 31 20 150 1 76 7 143 11 147 15 15 51 -3 57 -28 8 -31 37
-57 57 -50 40 16 24 98 -29 144 -40 36 -43 36 -104 13z"/>
<path d="M1412 822 c-12 -4 -36 -20 -52 -35 l-30 -29 0 -198 0 -199 26 -20
c40 -31 87 -36 130 -15 55 27 62 59 63 261 l1 172 -52 36 c-29 19 -55 35 -58
34 -3 -1 -15 -4 -28 -7z m38 -101 c13 -26 13 -318 0 -326 -6 -3 -19 -3 -30 0
-19 6 -20 15 -20 170 0 160 2 171 32 174 4 1 12 -8 18 -18z"/>
<path d="M2071 819 c-13 -5 -39 -7 -57 -3 -64 12 -103 -13 -89 -56 5 -15 19
-18 95 -18 105 0 120 9 95 57 -8 17 -17 31 -18 30 -1 0 -13 -5 -26 -10z"/>
<path d="M1622 808 c-8 -8 -12 -47 -11 -122 1 -133 7 -160 37 -164 25 -4 42
28 42 81 1 52 16 12 30 -78 6 -44 15 -84 20 -90 4 -5 15 -33 24 -62 20 -59 46
-75 77 -47 18 16 19 33 19 236 0 225 -5 258 -39 258 -33 0 -40 -24 -43 -139
l-3 -113 -45 123 c-40 110 -48 124 -70 127 -14 2 -31 -3 -38 -10z"/>
<path d="M2189 813 c-23 -6 -32 -61 -18 -102 7 -19 25 -58 41 -88 l29 -54 -36
-103 c-42 -120 -43 -150 -3 -154 23 -3 28 1 33 25 3 15 10 42 16 58 6 17 15
46 21 65 5 19 16 42 24 51 8 9 17 33 21 52 3 20 14 44 24 53 11 9 19 30 19 47
0 16 8 51 17 76 19 54 13 81 -17 81 -24 0 -57 -50 -66 -100 -10 -62 -15 -67
-28 -28 -8 20 -16 51 -20 69 -6 32 -23 60 -35 58 -3 -1 -13 -3 -22 -6z"/>
<path d="M2749 797 c-43 -29 -46 -45 -48 -243 l-1 -160 36 -42 c29 -34 42 -42
70 -42 44 0 101 37 114 74 5 16 10 104 10 195 0 183 -4 196 -62 225 -43 22
-79 20 -119 -7z m92 -122 c10 -90 10 -248 0 -263 -4 -8 -18 -12 -31 -10 -22 3
-22 4 -21 162 1 88 4 163 7 168 3 5 13 8 22 6 13 -2 19 -19 23 -63z"/>
<path d="M2503 788 c-24 -27 -43 -99 -43 -165 0 -26 -7 -83 -15 -126 -25 -133
-19 -187 21 -187 25 0 31 14 36 80 3 31 6 35 35 38 34 3 36 0 48 -75 6 -39 9
-43 35 -43 20 0 31 6 35 21 10 31 -47 421 -67 462 -12 25 -60 22 -85 -5z m64
-234 l5 -69 -26 0 -27 0 6 60 c13 120 32 124 42 9z"/>
<path d="M546 683 c-3 -4 -6 -15 -6 -25 0 -12 -6 -19 -17 -17 -33 3 -43 -1
-43 -16 0 -9 12 -18 29 -21 27 -6 30 -10 33 -53 2 -33 7 -46 18 -46 11 0 16
13 18 47 3 42 6 47 29 50 38 4 40 27 4 39 -17 6 -31 17 -31 24 0 14 -25 27
-34 18z"/>
<path d="M363 624 c-3 -8 -1 -20 5 -26 16 -16 42 -2 42 22 0 24 -38 28 -47 4z"/>
<path d="M700 621 c0 -27 19 -36 37 -18 18 18 9 37 -18 37 -12 0 -19 -7 -19
-19z"/>
<path d="M1935 534 c-14 -15 -17 -32 -13 -108 2 -50 7 -97 11 -103 10 -16 173
-18 182 -2 4 6 4 25 1 44 -6 32 -8 33 -54 32 l-47 -2 -3 38 c-3 38 -2 40 48
41 22 1 25 6 25 36 l0 35 -66 3 c-53 2 -70 -1 -84 -14z"/>
<path d="M1234 472 c-6 -4 -19 -21 -28 -39 -12 -25 -25 -34 -54 -38 -58 -10
-62 -13 -62 -39 0 -34 31 -49 80 -41 58 10 87 37 98 92 13 58 -2 86 -34 65z"/>
<path d="M2318 439 c-20 -11 -24 -62 -8 -103 7 -20 17 -26 39 -26 38 0 44 18
22 74 -22 58 -31 68 -53 55z"/>
<path d="M2420 270 c0 -11 7 -20 15 -20 12 0 15 -16 15 -80 0 -79 0 -80 25
-80 25 0 25 1 25 80 0 64 3 80 15 80 8 0 15 9 15 20 0 18 -7 20 -55 20 -48 0
-55 -2 -55 -20z"/>
<path d="M2560 190 l0 -100 40 0 c33 0 40 3 40 20 0 13 -7 20 -20 20 -13 0
-20 7 -20 20 0 11 7 20 15 20 8 0 15 9 15 20 0 11 -7 20 -15 20 -8 0 -15 9
-15 20 0 13 7 20 20 20 13 0 20 7 20 20 0 17 -7 20 -40 20 l-40 0 0 -100z"/>
<path d="M2690 190 l0 -100 40 0 c33 0 40 3 40 20 0 13 -7 20 -20 20 -13 0
-20 7 -20 20 0 11 7 20 15 20 8 0 15 9 15 20 0 11 -7 20 -15 20 -8 0 -15 9
-15 20 0 13 7 20 20 20 13 0 20 7 20 20 0 17 -7 20 -40 20 l-40 0 0 -100z"/>
<path d="M2885 268 c-2 -7 -6 -22 -8 -33 -3 -18 -5 -17 -15 8 -7 17 -19 27
-32 27 -18 0 -20 -6 -20 -65 0 -58 2 -65 20 -65 14 0 20 7 20 22 0 32 12 14
19 -29 5 -29 11 -38 26 -38 18 0 21 9 27 75 3 41 4 83 1 93 -5 20 -32 23 -38
5z"/>
</g>
</svg>
