<?xml version="1.0" standalone="no"?>
<!DOCTYPE svg PUBLIC "-//W3C//DTD SVG 20010904//EN"
 "http://www.w3.org/TR/2001/REC-SVG-20010904/DTD/svg10.dtd">
<svg version="1.0" xmlns="http://www.w3.org/2000/svg"
 width="340.000000pt" height="70.000000pt" viewBox="0 0 340.000000 70.000000"
 preserveAspectRatio="xMidYMid meet">

<g transform="translate(0.000000,70.000000) scale(0.100000,-0.100000)"
fill="#000000" stroke="none">
<path d="M1898 667 c-132 -38 -199 -144 -199 -318 -2 -228 98 -328 315 -317
66 3 92 10 135 34 91 49 141 152 141 290 0 213 -81 310 -267 320 -47 2 -97 -1
-125 -9z m187 -150 c43 -43 59 -103 52 -190 -10 -114 -59 -171 -146 -171 -94
0 -140 63 -141 192 0 99 31 171 85 193 11 4 42 8 69 8 41 1 52 -3 81 -32z"/>
<path d="M60 661 c-13 -9 -15 -55 -18 -288 -2 -182 1 -289 8 -307 l10 -28 153
3 c143 4 155 6 210 33 106 52 153 150 145 305 -7 139 -60 224 -164 265 -57 22
-318 35 -344 17z m277 -135 c17 -8 42 -32 55 -53 19 -32 23 -51 23 -118 0
-130 -44 -183 -159 -192 l-66 -6 0 198 0 198 58 -6 c32 -2 73 -12 89 -21z"/>
<path d="M668 659 c-17 -9 -18 -35 -18 -303 0 -238 3 -296 14 -305 9 -8 68
-11 187 -9 l174 3 0 55 0 55 -112 3 -113 3 0 69 0 70 49 0 c26 0 69 3 94 6 38
5 47 11 52 32 3 13 3 37 0 53 l-7 29 -94 0 -94 0 0 65 0 64 113 3 112 3 3 34
c2 19 1 44 -2 57 l-6 24 -168 0 c-95 0 -175 -5 -184 -11z"/>
<path d="M1125 658 c-3 -7 -4 -148 -3 -313 l3 -300 65 0 65 0 6 125 c3 69 7
126 8 128 0 1 46 2 101 2 l99 0 3 -127 3 -128 63 -3 c59 -3 63 -2 72 23 13 35
13 545 0 580 -9 25 -13 26 -72 23 l-63 -3 -3 -117 -3 -118 -99 0 -100 0 -1 88
c-1 48 -4 101 -8 117 -6 29 -8 30 -69 33 -44 2 -64 -1 -67 -10z"/>
<path d="M2390 661 c-13 -9 -15 -55 -18 -295 -2 -198 1 -292 8 -307 11 -20 18
-21 158 -17 133 3 152 5 197 28 28 14 60 40 73 60 21 30 23 45 20 108 -3 71
-5 75 -41 108 l-38 35 23 32 c32 45 32 139 1 183 -36 51 -90 67 -238 71 -78 2
-136 0 -145 -6z m238 -127 c28 -19 29 -67 2 -94 -14 -14 -33 -20 -65 -20 l-45
0 0 65 0 65 43 0 c23 0 53 -7 65 -16z m30 -254 c28 -26 29 -73 2 -100 -16 -16
-33 -20 -80 -20 l-60 0 0 70 0 70 58 0 c45 0 63 -5 80 -20z"/>
<path d="M2928 660 c-17 -10 -18 -36 -18 -304 0 -246 2 -296 15 -306 10 -8 55
-11 157 -8 125 3 149 6 190 26 65 32 91 71 96 144 5 71 -9 109 -57 148 -19 17
-30 30 -23 30 23 0 55 88 48 132 -18 112 -69 140 -261 145 -82 2 -137 0 -147
-7z m242 -130 c11 -11 20 -30 20 -43 0 -41 -23 -59 -78 -65 l-52 -5 0 67 0 66
45 0 c32 0 51 -6 65 -20z m29 -256 c26 -34 27 -68 1 -94 -16 -16 -33 -20 -80
-20 l-60 0 0 70 0 70 59 0 c52 0 62 -3 80 -26z"/>
</g>
</svg>
