<?xml version="1.0" standalone="no"?>
<!DOCTYPE svg PUBLIC "-//W3C//DTD SVG 20010904//EN"
 "http://www.w3.org/TR/2001/REC-SVG-20010904/DTD/svg10.dtd">
<svg version="1.0" xmlns="http://www.w3.org/2000/svg"
 width="236.000000pt" height="70.000000pt" viewBox="0 0 236.000000 70.000000"
 preserveAspectRatio="xMidYMid meet">

<g transform="translate(0.000000,70.000000) scale(0.100000,-0.100000)"
fill="#000000" stroke="none">
<path d="M40 661 c-13 -9 -15 -55 -18 -288 -2 -182 1 -289 8 -307 l10 -28 153
3 c143 4 155 6 210 33 106 52 153 150 145 305 -7 139 -60 224 -164 265 -57 22
-318 35 -344 17z m277 -135 c17 -8 42 -32 55 -53 19 -32 23 -51 23 -118 0
-130 -44 -183 -159 -192 l-66 -6 0 198 0 198 58 -6 c32 -2 73 -12 89 -21z"/>
<path d="M648 659 c-17 -9 -18 -35 -18 -303 0 -238 3 -296 14 -305 9 -8 68
-11 187 -9 l174 3 0 55 0 55 -112 3 -113 3 0 69 0 70 49 0 c26 0 69 3 94 6 38
5 47 11 52 32 3 13 3 37 0 53 l-7 29 -94 0 -94 0 0 65 0 64 113 3 112 3 3 34
c2 19 1 44 -2 57 l-6 24 -168 0 c-95 0 -175 -5 -184 -11z"/>
<path d="M1112 662 c-9 -7 -12 -76 -10 -313 l3 -304 60 -3 c47 -3 62 0 72 14
16 22 19 548 3 588 -9 23 -15 26 -62 26 -29 0 -59 -4 -66 -8z"/>
<path d="M1370 660 c-13 -8 -15 -53 -18 -288 -2 -172 1 -289 7 -305 l11 -27
134 0 c184 0 253 26 296 110 20 38 17 130 -5 168 -11 18 -22 32 -25 32 -3 0
-13 7 -23 15 -18 13 -18 15 3 43 12 17 24 50 27 75 11 95 -36 155 -135 176
-64 13 -251 14 -272 1z m238 -126 c28 -19 29 -67 2 -94 -14 -14 -33 -20 -65
-20 l-45 0 0 65 0 65 43 0 c23 0 53 -7 65 -16z m32 -254 c12 -12 20 -33 20
-54 0 -48 -28 -66 -102 -66 l-58 0 0 70 0 70 60 0 c47 0 64 -4 80 -20z"/>
<path d="M1907 655 c-15 -15 -17 -48 -17 -299 0 -217 3 -286 13 -300 12 -16
28 -18 158 -14 127 3 150 6 191 26 66 33 91 72 96 148 5 70 -12 111 -57 145
l-28 21 23 25 c34 37 41 104 18 162 -16 38 -28 50 -69 71 -44 21 -66 25 -181
28 -112 4 -133 2 -147 -13z m241 -121 c28 -19 29 -67 2 -94 -14 -14 -33 -20
-65 -20 l-45 0 0 65 0 65 43 0 c23 0 53 -7 65 -16z m29 -256 c29 -27 30 -71 3
-98 -16 -16 -33 -20 -80 -20 l-60 0 0 70 0 70 57 0 c44 0 62 -5 80 -22z"/>
</g>
</svg>
