<?xml version="1.0" standalone="no"?>
<!DOCTYPE svg PUBLIC "-//W3C//DTD SVG 20010904//EN"
 "http://www.w3.org/TR/2001/REC-SVG-20010904/DTD/svg10.dtd">
<svg version="1.0" xmlns="http://www.w3.org/2000/svg"
 width="274.000000pt" height="98.000000pt" viewBox="0 0 274.000000 98.000000"
 preserveAspectRatio="xMidYMid meet">

<g transform="translate(0.000000,98.000000) scale(0.100000,-0.100000)"
fill="#000000" stroke="none">
<path d="M1756 937 c-29 -21 -35 -86 -35 -387 -1 -393 9 -434 112 -465 53 -16
144 -20 163 -7 22 14 34 52 34 106 0 58 -14 76 -59 76 -50 0 -51 9 -51 340 l0
309 -26 20 c-31 24 -110 29 -138 8z"/>
<path d="M251 909 c-114 -22 -211 -131 -211 -238 0 -89 63 -191 144 -234 38
-20 60 -22 284 -27 l244 -5 24 -30 c28 -35 32 -99 8 -133 -60 -86 -175 -53
-204 58 -16 59 -26 70 -65 70 -49 0 -77 -39 -69 -94 14 -91 58 -152 138 -193
101 -52 215 -27 295 63 99 113 74 290 -53 369 l-49 30 -241 5 c-260 5 -274 8
-301 60 -25 48 -19 86 19 127 29 32 40 38 76 38 35 0 47 -6 75 -36 21 -23 35
-52 40 -78 8 -50 47 -77 89 -61 54 20 60 88 16 177 -50 101 -152 152 -259 132z"/>
<path d="M1027 882 c-15 -17 -17 -58 -17 -386 0 -229 4 -374 10 -386 6 -11 27
-24 48 -30 40 -11 452 -14 515 -3 51 8 72 40 69 107 -4 89 -9 90 -242 94
l-200 3 0 55 0 54 138 0 c168 0 177 5 177 102 0 91 -13 98 -181 98 l-134 0 0
54 0 55 206 3 c240 4 234 1 234 103 0 99 13 95 -322 95 -263 0 -286 -1 -301
-18z"/>
<path d="M607 692 c-24 -26 -21 -55 7 -81 30 -29 63 -24 90 12 19 26 19 30 5
55 -19 35 -76 43 -102 14z"/>
<path d="M2287 666 c-180 -67 -260 -263 -177 -433 35 -71 72 -106 150 -141
105 -49 215 -37 310 32 59 43 98 100 117 173 38 144 -30 289 -165 354 -59 28
-179 36 -235 15z m151 -200 c35 -18 56 -57 56 -103 0 -27 -7 -42 -32 -64 -43
-38 -76 -45 -118 -26 -43 21 -66 57 -66 104 0 30 7 44 36 70 40 37 79 42 124
19z"/>
<path d="M248 348 c-27 -22 -30 -53 -7 -81 26 -34 71 -36 93 -5 21 30 20 50
-4 76 -23 24 -58 28 -82 10z"/>
</g>
</svg>
